# Blender 3.4.1
# www.blender.org
mtllib test.mtl
o Plane
v -0.257337 -0.006719 1.188467
v 2.079114 -0.006719 1.188467
v -0.257337 -0.006719 -1.147983
v 2.079114 -0.006719 -1.147983
vn -0.0000 1.0000 -0.0000
vt 0.000000 0.000000
vt 1.000000 0.000000
vt 0.000000 1.000000
vt 1.000000 1.000000
s 0
usemtl Material.001
f 1/1/1 2/2/1 4/4/1 3/3/1
o Cube
v 0.751370 0.000314 0.179760
v 0.751370 0.319351 0.179760
v 0.751370 0.000314 -0.139276
v 0.751370 0.319351 -0.139276
v 1.070407 0.000314 0.179760
v 1.070407 0.319351 0.179760
v 1.070407 0.000314 -0.139276
v 1.070407 0.319351 -0.139276
vn -1.0000 -0.0000 -0.0000
vn -0.0000 -0.0000 -1.0000
vn 1.0000 -0.0000 -0.0000
vn -0.0000 -0.0000 1.0000
vn -0.0000 -1.0000 -0.0000
vn -0.0000 1.0000 -0.0000
vt 0.375000 0.000000
vt 0.375000 1.000000
vt 0.125000 0.750000
vt 0.625000 0.000000
vt 0.625000 1.000000
vt 0.875000 0.750000
vt 0.375000 0.250000
vt 0.125000 0.500000
vt 0.625000 0.250000
vt 0.875000 0.500000
vt 0.375000 0.750000
vt 0.625000 0.750000
vt 0.375000 0.500000
vt 0.625000 0.500000
s 0
usemtl Material.002
f 5/5/2 6/8/2 8/13/2 7/11/2
f 7/11/3 8/13/3 12/18/3 11/17/3
f 11/17/4 12/18/4 10/16/4 9/15/4
f 9/15/5 10/16/5 6/9/5 5/6/5
f 7/12/6 11/17/6 9/15/6 5/7/6
f 12/18/7 8/14/7 6/10/7 10/16/7
