# Blender 3.4.1
# www.blender.org
mtllib snake2.mtl
o COBRA
v 0.008508 -0.002570 -0.059299
v 0.000000 -0.003588 -0.059171
v 0.015766 0.001223 -0.059299
v 0.013181 0.003279 -0.228541
v 0.021470 0.007416 -0.059299
v 0.025166 0.015002 -0.059299
v 0.026560 0.023106 -0.059299
v 0.025841 0.023142 -0.105314
v 0.025358 0.030852 -0.059299
v 0.022387 0.022468 -0.229805
v 0.021317 0.029303 -0.230041
v 0.020880 0.036668 -0.105182
v 0.021541 0.036914 -0.059299
v 0.019557 0.035961 -0.164672
v 0.015554 0.041264 -0.059299
v 0.014085 0.040049 -0.164621
v 0.008190 0.043884 -0.059299
v 0.007359 0.042529 -0.164571
v 0.000000 0.044595 -0.059249
v 0.000000 0.043500 -0.165064
v 0.007645 -0.001188 -0.163409
v 0.000000 -0.002414 -0.163364
v 0.014275 0.002281 -0.163537
v 0.019569 0.008077 -0.163752
v 0.022962 0.015194 -0.164016
v 0.024204 0.022823 -0.164298
v 0.023043 0.030137 -0.164569
v 0.000000 0.041312 -0.230777
v 0.006992 0.000055 -0.228812
v 0.000000 -0.001228 -0.228751
v 0.018217 0.034526 -0.230454
v 0.013286 0.038288 -0.230633
v 0.006785 0.040815 -0.230753
v 0.018077 0.008675 -0.229223
v 0.021227 0.015330 -0.229540
v 0.008205 -0.002294 -0.105407
v 0.000000 -0.003465 -0.105416
v 0.015253 0.001388 -0.105376
v 0.020902 0.007540 -0.105324
v 0.024519 0.015072 -0.105261
v 0.024604 0.030885 -0.105128
v 0.015070 0.041081 -0.105042
v 0.007913 0.043656 -0.105020
v 0.000000 0.044215 -0.105016
v 0.015281 0.003287 -0.002006
v 0.024647 0.014810 -0.001681
v 0.024511 0.029108 -0.001279
v 0.020817 0.034886 -0.001116
v 0.015062 0.039170 -0.000995
v 0.008129 0.041893 -0.000918
v 0.008238 0.000155 -0.002094
v 0.021064 0.008477 -0.001860
v 0.025817 0.021879 -0.001482
v 0.000000 0.042628 -0.000898
v 0.000000 -0.000654 -0.002117
v -0.008129 0.041893 -0.000918
v -0.015281 0.003287 -0.002006
v -0.021064 0.008477 -0.001860
v -0.024647 0.014810 -0.001681
v -0.020817 0.034886 -0.001116
v -0.024511 0.029108 -0.001279
v -0.015062 0.039170 -0.000995
v -0.008238 0.000155 -0.002094
v -0.025817 0.021879 -0.001482
v -0.008508 -0.002570 -0.059299
v -0.008205 -0.002294 -0.105407
v -0.007645 -0.001188 -0.163409
v -0.014275 0.002281 -0.163537
v -0.015253 0.001388 -0.105376
v -0.020902 0.007540 -0.105324
v -0.019569 0.008077 -0.163752
v -0.024519 0.015072 -0.105261
v -0.022962 0.015194 -0.164016
v -0.025841 0.023142 -0.105314
v -0.024204 0.022823 -0.164298
v -0.026560 0.023106 -0.059299
v -0.025358 0.030852 -0.059299
v -0.024604 0.030885 -0.105128
v -0.020880 0.036668 -0.105182
v -0.021541 0.036914 -0.059299
v -0.015554 0.041264 -0.059299
v -0.015070 0.041081 -0.105042
v -0.008190 0.043884 -0.059299
v -0.007913 0.043656 -0.105020
v -0.006785 0.040815 -0.230753
v -0.006992 0.000055 -0.228812
v -0.013286 0.038288 -0.230633
v -0.018217 0.034526 -0.230454
v -0.021317 0.029303 -0.230041
v -0.019557 0.035961 -0.164672
v -0.014085 0.040049 -0.164621
v -0.013181 0.003279 -0.228541
v -0.018077 0.008675 -0.229223
v -0.021227 0.015330 -0.229540
v -0.022387 0.022468 -0.229805
v -0.023043 0.030137 -0.164569
v -0.007359 0.042529 -0.164571
v -0.015766 0.001223 -0.059299
v -0.021470 0.007416 -0.059299
v -0.025166 0.015002 -0.059299
v -0.003392 0.041064 -0.230765
vn 0.2126 0.9770 0.0135
vn 0.2082 0.9780 -0.0124
vn -0.0000 0.9999 0.0142
vn 0.4767 0.8789 -0.0154
vn 0.4672 0.8841 0.0118
vn -0.0000 0.9999 -0.0101
vn -0.0000 0.9997 -0.0236
vn -0.0000 -0.9999 -0.0115
vn 0.3059 -0.9520 -0.0135
vn -0.0000 -0.9997 0.0228
vn 0.3148 -0.9490 -0.0200
vn 0.1859 -0.7106 0.6786
vn -0.0000 -0.7209 0.6931
vn 0.2952 -0.9552 0.0201
vn 0.6096 -0.7924 -0.0225
vn 0.6088 -0.7932 -0.0161
vn -0.0000 -0.9998 -0.0181
vn -0.0000 0.7047 0.7095
vn 0.1678 0.6949 0.6993
vn 0.8289 -0.5589 -0.0240
vn 0.8279 -0.5606 -0.0181
vn 0.9338 0.3573 -0.0211
vn 0.7336 0.6793 -0.0182
vn 0.9359 0.3522 0.0039
vn 0.9998 -0.0016 -0.0218
vn 1.0000 -0.0068 -0.0013
vn 0.7299 0.6835 0.0090
vn 0.9536 -0.3003 -0.0201
vn 0.9538 -0.2992 -0.0258
vn 0.9996 -0.0030 -0.0277
vn 0.2404 0.9704 -0.0238
vn 0.4768 0.8786 -0.0257
vn 0.1641 0.6908 -0.7041
vn 0.7415 0.6704 -0.0283
vn 0.9398 0.3406 -0.0292
vn 0.7002 0.2225 -0.6784
vn 0.7298 -0.0339 -0.6829
vn 0.6893 -0.2462 -0.6814
vn 0.3617 0.6123 -0.7031
vn 0.5533 0.4635 -0.6921
vn 0.2295 -0.7045 -0.6715
vn -0.0000 -0.7535 -0.6575
vn -0.0000 0.6934 -0.7206
vn 0.4514 -0.6147 -0.6468
vn 0.5957 -0.4280 -0.6796
vn 0.7369 -0.0138 0.6758
vn 0.6952 -0.2628 0.6690
vn 0.9516 -0.3075 -0.0011
vn 0.5721 -0.4690 0.6728
vn 0.6900 0.2519 0.6786
vn 0.6053 -0.7959 0.0111
vn 0.8258 -0.5639 0.0023
vn 0.3928 -0.6217 0.6776
vn 0.3544 0.6195 0.7004
vn 0.5408 0.4845 0.6875
vn -0.2082 0.9780 -0.0124
vn -0.4767 0.8789 -0.0154
vn -0.7336 0.6793 -0.0182
vn -0.4672 0.8841 0.0118
vn -0.7299 0.6835 0.0090
vn -0.9359 0.3523 0.0039
vn -0.2126 0.9770 0.0135
vn -0.9338 0.3573 -0.0211
vn -0.1678 0.6949 0.6993
vn -0.3148 -0.9490 -0.0200
vn -0.3059 -0.9520 -0.0135
vn -0.1859 -0.7106 0.6786
vn -0.2952 -0.9552 0.0201
vn -0.9996 -0.0030 -0.0277
vn -0.9538 -0.2992 -0.0258
vn -0.9998 -0.0016 -0.0218
vn -0.9536 -0.3003 -0.0201
vn -0.8289 -0.5589 -0.0240
vn -0.8279 -0.5606 -0.0181
vn -1.0000 -0.0068 -0.0013
vn -0.6096 -0.7924 -0.0225
vn -0.6088 -0.7932 -0.0161
vn -0.2295 -0.7045 -0.6715
vn -0.4514 -0.6147 -0.6468
vn -0.4768 0.8786 -0.0257
vn -0.1641 0.6908 -0.7042
vn -0.3617 0.6123 -0.7031
vn -0.9398 0.3406 -0.0292
vn -0.7298 -0.0339 -0.6829
vn -0.7415 0.6704 -0.0283
vn -0.7002 0.2225 -0.6784
vn -0.6893 -0.2462 -0.6814
vn -0.5957 -0.4280 -0.6796
vn -0.5533 0.4635 -0.6921
vn -0.0522 0.6750 -0.7359
vn -0.2404 0.9704 -0.0238
vn -0.6053 -0.7959 0.0111
vn -0.8258 -0.5639 0.0023
vn -0.3544 0.6195 0.7004
vn -0.6900 0.2519 0.6786
vn -0.5408 0.4845 0.6875
vn -0.9516 -0.3075 -0.0011
vn -0.6952 -0.2628 0.6690
vn -0.5721 -0.4690 0.6728
vn -0.7369 -0.0138 0.6758
vn -0.3928 -0.6217 0.6776
vt 0.749334 0.540106
vt 0.715276 0.540222
vt 0.779949 0.540112
vt 0.655754 0.437904
vt 0.773753 0.384847
vt 0.651012 0.593197
vt 0.246017 0.612822
vt 0.625728 0.437855
vt 0.592650 0.437836
vt 0.560188 0.437849
vt 0.560909 0.480070
vt 0.532010 0.437894
vt 0.567504 0.594312
vt 0.575596 0.615407
vt 0.542653 0.594568
vt 0.693431 0.615407
vt 0.205245 0.499776
vt 0.514929 0.480063
vt 0.513194 0.437965
vt 0.200012 0.541870
vt 0.519179 0.534650
vt 0.214008 0.445197
vt 0.222258 0.541894
vt 0.234299 0.445266
vt 0.250539 0.541913
vt 0.260100 0.445329
vt 0.282735 0.541970
vt 0.288945 0.444889
vt 0.748449 0.444594
vt 0.717680 0.444634
vt 0.653515 0.533549
vt 0.776417 0.444482
vt 0.625465 0.533700
vt 0.594513 0.533926
vt 0.564034 0.534198
vt 0.537458 0.534489
vt 0.293310 0.384593
vt 0.903551 0.611295
vt 0.747654 0.384593
vt 0.191725 0.611405
vt 0.719429 0.384647
vt 0.170622 0.609883
vt 0.223431 0.384842
vt 0.526228 0.595006
vt 0.784016 0.614924
vt 0.241701 0.384699
vt 0.849539 0.614006
vt 0.266605 0.384606
vt 0.894010 0.612714
vt 0.624934 0.593781
vt 0.338646 0.614037
vt 0.596021 0.594056
vt 0.452846 0.614925
vt 0.749072 0.497805
vt 0.716130 0.497795
vt 0.778800 0.497840
vt 0.655754 0.480179
vt 0.625946 0.480083
vt 0.593163 0.480007
vt 0.532782 0.479944
vt 0.226762 0.499929
vt 0.254239 0.499967
vt 0.285389 0.499981
vt 0.778167 0.592678
vt 0.648366 0.385361
vt 0.845550 0.604354
vt 0.593901 0.384987
vt 0.645760 0.605932
vt 0.539546 0.384674
vt 0.399642 0.605402
vt 0.521673 0.384593
vt 0.200347 0.595241
vt 0.300727 0.604418
vt 0.221693 0.595375
vt 0.227852 0.603050
vt 0.248228 0.595465
vt 0.182039 0.601487
vt 0.748751 0.592592
vt 0.900542 0.602973
vt 0.622074 0.385173
vt 0.755323 0.605395
vt 0.565635 0.384816
vt 0.523887 0.605932
vt 0.280175 0.595494
vt 0.170622 0.599742
vt 0.715873 0.592570
vt 0.915715 0.601258
vt 0.312619 0.595481
vt 0.184509 0.598047
vt 0.505806 0.594238
vt 0.657791 0.592678
vt 0.850194 0.597887
vt 0.479514 0.594426
vt 0.761724 0.596481
vt 0.451341 0.594612
vt 0.853261 0.595501
vt 0.379113 0.595006
vt 0.365241 0.595284
vt 0.507065 0.595608
vt 0.396986 0.594925
vt 0.607102 0.595029
vt 0.340996 0.595407
vt 0.232429 0.596676
vt 0.683859 0.592592
vt 0.903045 0.599487
vt 0.423075 0.594783
vt 0.731744 0.595006
vt 0.682312 0.540106
vt 0.684440 0.497805
vt 0.688225 0.444594
vt 0.510955 0.446050
vt 0.663973 0.444482
vt 0.658651 0.497840
vt 0.513194 0.499419
vt 0.483386 0.499516
vt 0.482905 0.445899
vt 0.450603 0.499592
vt 0.451953 0.445673
vt 0.418349 0.499529
vt 0.421474 0.445401
vt 0.417628 0.541750
vt 0.389450 0.541705
vt 0.390222 0.499655
vt 0.370634 0.499819
vt 0.372369 0.499536
vt 0.370634 0.541634
vt 0.370634 0.541915
vt 0.345459 0.541927
vt 0.346130 0.499960
vt 0.315414 0.541930
vt 0.316916 0.499983
vt 0.320347 0.384620
vt 0.895962 0.609842
vt 0.692580 0.384593
vt 0.193736 0.608446
vt 0.346939 0.384726
vt 0.853361 0.608383
vt 0.367723 0.384880
vt 0.383668 0.384593
vt 0.789257 0.607214
vt 0.400093 0.385031
vt 0.699563 0.606385
vt 0.368916 0.445237
vt 0.376619 0.444949
vt 0.345866 0.445295
vt 0.508452 0.386402
vt 0.669921 0.384847
vt 0.249809 0.607243
vt 0.482374 0.385818
vt 0.343847 0.606386
vt 0.453461 0.385543
vt 0.458952 0.605941
vt 0.424944 0.385287
vt 0.582036 0.605932
vt 0.394898 0.445110
vt 0.318390 0.445345
vt 0.513194 0.541695
vt 0.655754 0.540112
vt 0.483168 0.541744
vt 0.450090 0.541763
vt 0.306829 0.384607
vt 0.899756 0.610568
s 1
usemtl Material.003
f 17/25/1 43/62/2 19/27/3
f 42/61/4 43/62/2 17/25/1
f 42/61/4 17/25/1 15/23/5
f 44/63/6 43/62/2 20/28/7
f 43/62/2 44/63/6 19/27/3
f 37/55/8 36/54/9 2/2/10
f 37/55/8 21/29/11 36/54/9
f 51/78/12 55/86/13 1/1/14
f 36/54/9 23/32/15 38/56/16
f 36/54/9 21/29/11 23/32/15
f 37/55/8 22/30/17 21/29/11
f 1/1/14 55/86/13 2/2/10
f 54/84/18 50/76/19 19/27/3
f 23/31/15 24/33/20 39/58/21
f 41/60/22 12/18/23 9/12/24
f 8/11/25 41/60/22 9/12/24
f 8/11/25 9/12/24 7/10/26
f 12/17/23 42/61/4 15/23/5
f 12/17/23 15/23/5 13/20/27
f 12/18/23 13/19/27 9/12/24
f 39/58/21 24/33/20 40/59/28
f 24/33/20 25/34/29 40/59/28
f 38/57/16 23/31/15 39/58/21
f 40/59/28 8/11/25 7/10/26
f 25/34/29 26/35/30 8/11/25
f 8/11/25 40/59/28 25/34/29
f 18/26/31 16/24/32 33/48/33
f 14/21/34 27/36/35 11/15/36
f 27/36/35 14/21/34 41/60/22
f 20/28/7 18/26/31 33/48/33
f 27/36/35 26/35/30 10/13/37
f 26/35/30 35/52/38 10/13/37
f 26/35/30 25/34/29 35/52/38
f 11/15/36 27/36/35 10/13/37
f 26/35/30 27/36/35 8/11/25
f 27/36/35 41/60/22 8/11/25
f 33/48/33 16/24/32 32/46/39
f 16/24/32 31/43/40 32/46/39
f 29/39/41 21/29/11 30/41/42
f 21/29/11 22/30/17 30/41/42
f 20/28/7 33/48/33 28/37/43
f 14/22/34 31/43/40 16/24/32
f 14/21/34 11/15/36 31/44/40
f 24/33/20 23/31/15 4/6/44
f 4/5/44 23/32/15 21/29/11
f 21/29/11 29/39/41 4/5/44
f 25/34/29 34/50/45 35/52/38
f 25/34/29 24/33/20 34/50/45
f 24/33/20 4/6/44 34/50/45
f 36/54/9 1/1/14 2/2/10
f 7/10/26 53/82/46 46/67/47
f 6/9/48 7/10/26 46/67/47
f 6/9/48 46/67/47 52/80/49
f 9/12/24 47/69/50 53/82/46
f 7/10/26 9/12/24 53/82/46
f 12/17/23 14/22/34 42/61/4
f 14/21/34 12/18/23 41/60/22
f 6/9/48 40/59/28 7/10/26
f 18/26/31 43/62/2 16/24/32
f 42/61/4 16/24/32 43/62/2
f 16/24/32 42/61/4 14/22/34
f 3/4/51 38/57/16 5/8/52
f 38/56/16 3/3/51 1/1/14
f 36/54/9 38/56/16 1/1/14
f 40/59/28 6/9/48 39/58/21
f 5/8/52 39/58/21 6/9/48
f 39/58/21 5/8/52 38/57/16
f 43/62/2 18/26/31 20/28/7
f 3/3/51 45/64/53 51/78/12
f 1/1/14 3/3/51 51/78/12
f 19/27/3 50/76/19 17/25/1
f 5/8/52 6/9/48 52/80/49
f 5/8/52 52/80/49 3/4/51
f 3/4/51 52/80/49 45/65/53
f 15/23/5 49/74/54 13/20/27
f 48/71/55 47/69/50 9/12/24
f 13/19/27 48/71/55 9/12/24
f 50/76/19 49/74/54 15/23/5
f 17/25/1 50/76/19 15/23/5
f 49/74/54 48/72/55 13/20/27
f 84/131/56 44/63/6 20/28/7
f 44/63/6 84/131/56 19/27/3
f 82/129/57 79/124/58 81/128/59
f 81/128/59 79/124/58 80/127/60
f 80/126/60 79/125/58 77/122/61
f 84/131/56 83/130/62 19/27/3
f 84/131/56 82/129/57 83/130/62
f 83/130/62 82/129/57 81/128/59
f 79/125/58 78/123/63 77/122/61
f 56/88/64 54/84/18 19/27/3
f 67/110/65 37/55/8 66/109/66
f 55/86/13 63/104/67 65/108/68
f 55/86/13 65/108/68 2/2/10
f 75/120/69 73/118/70 74/119/71
f 72/117/72 74/119/71 73/118/70
f 71/116/73 70/115/74 72/117/72
f 78/123/63 74/119/71 77/122/61
f 77/122/61 74/119/71 76/121/75
f 74/119/71 72/117/72 76/121/75
f 73/118/70 71/116/73 72/117/72
f 67/110/65 66/109/66 68/112/76
f 22/30/17 37/55/8 67/110/65
f 66/109/66 37/55/8 2/2/10
f 68/111/76 69/114/77 70/115/74
f 71/116/73 68/111/76 70/115/74
f 68/112/76 66/109/66 69/113/77
f 86/134/78 67/110/65 92/147/79
f 91/145/80 85/132/81 87/136/82
f 96/155/83 75/120/69 74/119/71
f 78/123/63 96/155/83 74/119/71
f 75/120/69 96/155/83 95/153/84
f 96/155/83 90/144/85 89/141/86
f 90/144/85 96/155/83 78/123/63
f 96/155/83 89/141/86 95/153/84
f 94/151/87 75/120/69 95/153/84
f 92/146/79 71/116/73 93/149/88
f 68/111/76 71/116/73 92/146/79
f 68/112/76 92/147/79 67/110/65
f 73/118/70 75/120/69 94/151/87
f 93/149/88 73/118/70 94/151/87
f 71/116/73 73/118/70 93/149/88
f 88/138/89 91/145/80 87/136/82
f 67/110/65 86/134/78 30/41/42
f 22/30/17 67/110/65 30/41/42
f 85/132/81 20/28/7 28/37/43 101/161/90
f 88/138/89 90/143/85 91/145/80
f 89/141/86 90/144/85 88/139/89
f 97/156/91 20/28/7 85/132/81
f 91/145/80 97/156/91 85/132/81
f 98/158/92 69/113/77 65/108/68
f 69/113/77 66/109/66 65/108/68
f 65/108/68 66/109/66 2/2/10
f 69/114/77 98/157/92 99/159/93
f 97/156/91 84/131/56 20/28/7
f 84/131/56 97/156/91 91/145/80
f 91/145/80 82/129/57 84/131/56
f 62/102/94 81/128/59 80/127/60
f 61/100/95 60/97/96 77/122/61
f 60/97/96 80/126/60 77/122/61
f 82/129/57 91/145/80 90/143/85
f 100/160/97 72/117/72 70/115/74
f 70/115/74 99/159/93 100/160/97
f 99/159/93 70/115/74 69/114/77
f 90/143/85 79/124/58 82/129/57
f 79/125/58 90/144/85 78/123/63
f 72/117/72 100/160/97 76/121/75
f 59/95/98 100/160/97 58/93/99
f 100/160/97 99/159/93 58/93/99
f 58/93/99 99/159/93 98/157/92
f 77/122/61 76/121/75 64/106/100
f 64/106/100 76/121/75 59/95/98
f 76/121/75 100/160/97 59/95/98
f 58/93/99 98/157/92 57/90/101
f 62/102/94 56/88/64 81/128/59
f 56/88/64 83/130/62 81/128/59
f 60/98/96 62/102/94 80/127/60
f 57/91/101 98/158/92 63/104/67
f 98/158/92 65/108/68 63/104/67
f 56/88/64 19/27/3 83/130/62
f 61/100/95 77/122/61 64/106/100
f 30/42/42 86/135/78 92/148/79 93/150/88 94/152/87 95/154/84 89/142/86 88/140/89 87/137/82 85/133/81 101/162/90 28/38/43 33/49/33 32/47/39 31/45/40 11/16/36 10/14/37 35/53/38 34/51/45 4/7/44 29/40/41
f 52/81/49 46/68/47 53/83/46 47/70/50 48/73/55 49/75/54 50/77/19 54/85/18 56/89/64 62/103/94 60/99/96 61/101/95 64/107/100 59/96/98 58/94/99 57/92/101 63/105/67 55/87/13 51/79/12 45/66/53
